<svg width="253" height="98" viewBox="0 0 253 98" fill="none" xmlns="http://www.w3.org/2000/svg">
<path d="M240.961 107.53L240.96 107.531C215.096 127.335 181.268 147.177 146.253 157.365C130.66 161.862 115.553 163.827 103.415 162.986C91.1663 162.138 82.4253 158.478 78.828 152.262L78.8267 152.26C75.3902 146.345 77.2299 139.476 81.9295 131.488C84.2543 127.537 87.2038 123.44 90.3612 119.21C91.163 118.136 91.979 117.052 92.8006 115.961C95.1967 112.779 97.6401 109.535 99.9181 106.278C103.444 101.242 105.137 96.2019 103.878 91.9761C102.577 87.6112 98.3749 84.8286 91.8322 83.8096L91.8311 83.8094C87.9126 83.2022 83.4556 83.621 78.7646 84.6078C74.0617 85.597 69.0291 87.1783 63.9311 88.9668C60.4953 90.1721 57.0435 91.4651 53.6309 92.7433C46.825 95.2926 40.1751 97.7835 34.1194 99.4044L34.1116 99.4065C19.0701 103.52 5.04923 104.631 -5.58188 102.654C-16.2477 100.672 -22.4398 95.8159 -23.9731 89.3635L-23.9733 89.3624C-25.5225 82.8642 -24.0889 75.1499 -19.4958 66.7139C-16.9503 62.2472 -13.9805 57.7218 -10.6002 53.1624L-10.593 53.1527L-10.5859 53.1429C-9.74681 51.972 -8.82282 50.3217 -7.86855 48.6174C-7.48778 47.9373 -7.10218 47.2487 -6.71522 46.5784C-5.29763 44.1229 -3.80766 41.8042 -2.20919 40.2799L1.6828 36.5684L-3.56831 37.7298C-4.96469 38.0386 -6.75848 38.4047 -8.52357 38.7649C-9.14506 38.8917 -9.76299 39.0178 -10.3588 39.1405C-11.4956 39.3745 -12.5522 39.5959 -13.383 39.7828C-14.1007 39.9443 -14.8026 40.1115 -15.1906 40.2596C-27.0356 44.2096 -38.4867 51.5683 -47.7413 57.8521C-57.0173 64.1212 -67.8246 67.2937 -75.3113 67.1802C-79.1094 67.1227 -81.6935 66.2284 -82.9513 64.881C-84.0449 63.7096 -84.4937 61.7635 -82.8677 58.4473L-82.8667 58.4452C-78.5542 49.6151 -69.1345 40.6229 -56.8405 32.4501C-44.5848 24.3027 -29.6346 17.0763 -14.4832 11.7146C0.67423 6.35084 15.9625 2.87819 28.8916 2.19014C41.9204 1.49677 52.1395 3.65182 57.6262 9.05043C60.7235 12.1054 61.3191 16.035 60.1477 20.7631C58.961 25.5532 55.9983 30.9393 52.2794 36.4972L52.2776 36.5001C50.7545 38.7875 48.9028 41.2049 46.9772 43.7188C45.752 45.3182 44.497 46.9567 43.2776 48.6257C40.2479 52.7723 37.4414 57.1077 36.573 60.9509C36.5347 61.1017 36.4963 61.2513 36.4583 61.3996C36.197 62.4194 35.9529 63.3721 35.8509 64.1338C35.7512 64.8782 35.6539 66.2505 36.7555 67.088C37.2711 67.4799 37.8678 67.5985 38.3797 67.6191C38.8947 67.6398 39.46 67.567 40.051 67.4458C41.233 67.2034 42.8071 66.7045 44.8374 65.9881L44.8521 65.9829L44.8668 65.9774C57.0658 61.3843 69.3375 57.1514 81.6142 53.3021C108.184 45.5898 130.852 45.8094 145.972 51.3606C153.525 54.1334 159.111 58.2028 162.429 63.1878C165.725 68.1401 166.868 74.1197 165.335 80.9415C163.391 89.1829 157.543 97.6456 150.293 106.935C149.544 107.887 148.487 109.103 147.277 110.494C147.163 110.625 147.047 110.759 146.93 110.893C145.589 112.435 144.109 114.148 142.766 115.845C141.43 117.533 140.186 119.258 139.342 120.828C138.919 121.613 138.571 122.407 138.37 123.172C138.172 123.925 138.086 124.77 138.331 125.585L138.354 125.658L138.383 125.729L138.471 125.94L138.72 126.539L139.327 126.767C140.722 127.292 142.504 127.31 144.321 126.99C149.305 126.19 154.572 124.619 159.622 122.434C175.09 116.186 188.811 106.956 200.286 98.151C215.837 86.2622 233.865 83.3653 243.921 86.1684C248.974 87.5768 251.461 90.2057 251.485 93.3249C251.511 96.6902 248.778 101.555 240.961 107.53Z" fill="white" stroke="#191919" stroke-width="3"/>
</svg>
