<svg width="151" height="99" viewBox="0 0 151 99" fill="none" xmlns="http://www.w3.org/2000/svg">
<path d="M22.8674 22.494C21.1002 24.5361 18.7825 25.9049 16.6456 27.4911C16.1209 27.758 15.8001 28.4253 15.041 28.2508C14.645 29.5379 13.1527 29.9946 12.7344 31.2615C12.4682 31.3173 12.7344 31.2615 12.5698 31.3688C12.4053 31.4762 11.4258 31.1427 11.7124 32.0629C9.31009 32.8695 8.57422 35.2921 7.54572 37.0992C6.45601 38.7799 5.61717 40.6105 5.0556 42.5332C4.40268 45.3411 5.4339 46.8543 8.24325 46.9691C11.9451 47.1022 15.6513 46.8842 19.312 46.318C21.8477 45.9154 24.4284 45.1354 26.8935 44.7363C31.5939 44.0134 36.0076 42.3703 40.5862 41.3348C43.5122 40.665 46.2063 39.1784 49.1736 38.6269C49.7976 38.5037 50.4763 37.9177 51.1662 38.6904C51.396 38.8984 52.3399 39.2265 51.8464 38.1325C51.5745 37.5089 52.1067 37.5319 52.4637 37.4504C53.2656 37.2051 54.069 36.988 54.8791 36.7635C55.4748 36.6418 55.9886 36.2976 56.5762 36.155C61.9579 34.4707 66.2688 30.7653 71.2519 28.3291C71.6602 27.7437 72.1725 27.2382 72.7634 26.8378C74.2139 26.1874 75.5865 25.3756 76.8552 24.4177C77.4032 24.1346 77.985 23.9224 78.5866 23.7863C78.7067 23.7728 78.828 23.7739 78.9478 23.7895C79.2755 23.8298 79.8571 24.2751 79.586 23.3824C80.5455 22.5741 81.7158 22.0564 82.9595 21.8903C83.3973 21.8684 83.9894 22.5256 84.212 21.5942C85.0438 21.0182 86.0224 20.6909 87.0334 20.6505C88.0444 20.6101 89.046 20.8583 89.9211 21.3661C90.155 21.5423 90.3378 21.7775 90.4507 22.0477C90.5384 22.6117 90.5044 23.1879 90.3509 23.7377C90.2143 24.1773 90.0236 24.5982 89.7833 24.9908C88.4876 26.1244 87.6074 27.7825 85.7221 28.1668C84.9332 27.9655 84.4777 28.4838 84.014 28.9812C81.2413 30.6509 78.3613 32.1355 75.3928 33.4254C74.8683 33.6418 74.3315 33.827 73.7851 33.98C70.2509 35.7988 66.4043 36.8897 62.9432 38.896C59.3533 41.1248 55.9418 43.6289 52.7394 46.3856C49.9863 48.6177 47.4932 51.1526 45.3071 53.9423C43.9996 55.5781 43.1889 57.5548 42.9716 59.6377C42.8139 61.3022 43.6736 62.2151 45.2428 62.7316C49.5968 64.1499 53.6818 62.5869 57.8317 61.7569C59.5955 61.5187 61.3302 61.1001 63.0085 60.5075C63.5977 60.489 64.1589 60.2515 64.5824 59.8414C67.3369 58.2881 70.4807 58.1526 73.49 57.4503C74.1119 57.3078 74.7247 57.1283 75.3252 56.9127C75.7399 56.7817 76.1415 56.6124 76.5247 56.4069C76.6795 56.3283 76.8427 56.2679 77.0114 56.2268C77.8712 56.1053 78.6957 55.8036 79.431 55.3415C80.4305 54.6891 81.5758 54.294 82.7649 54.1912C83.144 54.2548 83.5327 54.2298 83.9005 54.1181C84.2684 54.0064 84.6053 53.8111 84.8851 53.5474C87.0911 52.4957 89.3674 51.5751 91.1762 49.7999C91.6505 49.5172 92.1414 49.2634 92.6463 49.0399C93.4751 49.3313 93.8601 48.5333 94.471 48.2905C97.4998 46.9854 100.404 45.1626 103.666 44.2849C105.178 43.2254 106.984 43.2415 108.677 42.9801C110.371 42.7187 111.355 43.8519 112.032 45.2341C112.71 46.6163 111.957 47.553 111.096 48.3251C109.502 49.8362 107.543 50.9073 105.41 51.4335C104.4 50.1954 104.907 51.9896 104.458 51.92C103.739 52.4451 102.946 52.8593 102.105 53.1489C101.605 53.3437 101.144 53.6286 100.659 53.8228C100.225 53.9535 99.771 54.0002 99.3202 53.9603C98.1109 53.702 97.4966 54.8725 96.5192 55.1478C91.7484 57.1557 86.6023 58.3115 82.4616 61.7393C81.4484 62.5757 80.5962 63.8005 79.1325 64.1213C78.8666 64.3557 78.628 64.6193 78.4213 64.9072C77.0936 67.1045 74.7548 68.3326 73.424 70.6079C72.3351 72.4817 71.1855 74.2736 71.128 76.5279C71.0715 76.9826 71.1813 77.4423 71.437 77.8224C71.6928 78.2026 72.0773 78.4775 72.5197 78.5966C74.3018 79.2245 76.1829 79.5241 78.0719 79.4808C82.4972 79.4185 86.9078 78.9545 91.2492 78.0945C93.388 77.6834 95.5883 77.3683 97.7099 76.7528C100.948 75.8125 103.012 73.3378 105.46 71.3183C108.317 68.9811 111.006 66.3974 114.388 64.7774C115.53 64.3907 116.57 63.7507 117.431 62.9052C117.678 62.6292 117.958 62.3846 118.265 62.1769C120.204 61.3155 122.089 60.3507 124.005 59.441C126.289 58.8103 128.59 57.9663 130.915 57.3052C132.196 56.9349 133.549 56.8909 134.852 57.1771C136.155 57.4633 137.365 58.0707 138.373 58.9439C138.793 59.7088 139.117 60.5226 139.337 61.3668C139.445 62.0441 139.395 62.7372 139.19 63.3918C138.745 64.8371 137.528 65.7049 136.591 66.7853C135.861 67.5555 134.994 68.1843 134.036 68.6402C133.357 68.9274 132.712 69.2896 132.114 69.7201C130.306 70.452 128.553 71.3131 126.869 72.2968C126.084 72.7324 125.148 71.9932 124.585 72.9275C123.935 74.3759 122.413 74.3739 121.231 74.9356C120.594 75.2363 119.852 75.2662 119.217 75.5811C115.643 77.7417 111.569 78.3839 107.677 79.5691C106.374 79.9627 105.05 80.2816 103.711 80.5244C101.74 80.8988 100.797 82.5813 99.7874 84.0547C98.444 86.0577 97.496 88.299 96.9944 90.6579C96.8591 91.2098 96.1422 91.5995 96.5952 92.3062C98.6087 94.7757 101.389 94.4601 103.972 94.0056C106.261 93.6224 108.685 93.6715 110.765 92.3571C111.039 92.1876 111.397 92.4035 111.713 92.4868C112.028 92.5702 112.664 93.2536 112.932 92.2419C113.497 91.9094 114.133 91.7174 114.788 91.6821C118.975 90.8998 122.981 89.454 127.05 88.2811C127.735 88.0913 128.428 87.9364 129.121 87.7814C129.9 87.6634 130.66 87.4446 131.382 87.1306C133.123 85.8331 135.441 86.3122 137.257 85.2447C138.718 85.2992 139.955 84.5437 141.262 84.0679C143.533 83.0484 146.011 82.9036 148.311 82.0314C148.708 81.8712 149.149 81.8593 149.553 81.9977C149.958 82.1361 150.299 82.4157 150.515 82.7852C151.139 84.9417 150.608 86.363 148.648 86.9492C145.126 88.0099 141.901 89.9336 138.178 90.3812C137.92 90.4577 137.655 90.5276 137.388 90.5834C135.486 91.0605 133.694 91.8792 131.8 92.3913C131.59 92.4755 131.364 92.516 131.138 92.5103C130.911 92.5046 130.688 92.4527 130.482 92.3579C127.868 92.8918 125.374 93.8446 122.68 94.2125C121.364 94.3702 119.835 95.5084 118.301 95.8327C114.959 96.5445 111.572 97.2019 108.256 97.9903C105.764 98.503 103.233 98.8069 100.69 98.8986C98.2207 99.0642 94.9168 97.9759 93.9062 95.4563C93.4226 94.2768 94.5066 94.152 94.4428 93.8649C94.1202 92.2243 93.456 94.8062 93.0907 93.8686C92.7681 93.0878 92.6643 92.2339 92.7905 91.3985C93.2095 88.5929 94.0421 85.8648 95.2612 83.3034C95.4213 82.9627 95.5085 82.5831 95.6449 82.194C90.4131 83.1523 85.1348 83.8362 79.8315 84.2428C76.6704 84.3756 73.5083 84.0003 70.4661 83.131C67.4937 82.3022 65.098 78.2729 66.7321 73.8444C68.4018 69.5352 70.9909 65.6418 74.3191 62.4356C71.0012 63.479 67.5134 63.8157 64.3874 65.5858C63.2931 66.2139 61.2465 65.7779 59.8958 66.3762C57.2971 67.5041 54.5548 67.5983 51.8806 68.0645C48.4062 68.6696 44.8274 68.8835 41.6677 66.7118C40.1385 65.5442 39.0163 63.9243 38.4605 62.0824C37.9047 60.2404 37.9437 58.2702 38.5719 56.4517C40.2311 52.4064 42.9075 48.8586 46.3417 46.1524C47.3417 45.4201 48.1819 44.4917 48.811 43.4239C48.9177 43.359 49.0355 43.3147 49.1585 43.2933C48.8323 42.998 48.4505 43.1516 48.0879 43.1201C45.086 44.1123 42.1126 45.2518 39.0584 46.0483C35.1846 47.0203 31.3021 47.9573 27.4879 49.1316C25.2571 49.695 22.9994 50.1454 20.7232 50.4814C17.6175 51.0964 14.4231 51.7796 11.1845 51.2898C9.73264 51.1831 8.27506 51.1801 6.82282 51.2808C6.12575 51.4996 6.0761 50.3622 5.37232 50.5885C3.89996 49.7415 1.69444 49.5258 1.89956 47.1085C2.01449 45.8637 0.612372 45.1478 0.867802 44.1651C1.65422 41.1949 1.6144 37.841 4.08542 35.5726C4.74865 34.9589 3.82652 33.504 5.34701 33.6122C6.15188 32.5738 6.43456 31.1438 7.70974 30.4501C9.76509 27.9803 12.1188 25.7749 14.7171 23.8845C18.3237 21.3896 21.684 18.4963 25.5437 16.3922C28.3427 14.8791 30.9666 12.9783 33.9657 11.6464C34.9927 11.2271 35.6086 9.95029 36.9148 9.87807C37.5208 9.81953 37.9636 9.33017 38.5452 9.20913C41.517 7.04318 45.0871 5.94477 48.0743 3.80636C48.5324 3.47908 49.1556 3.625 49.6986 3.72535C49.6986 3.72535 49.7725 3.64379 49.7993 3.61413C49.7929 3.55107 49.7755 3.48964 49.7478 3.43263C49.8771 2.90227 50.3358 2.8723 50.7486 2.77384C53.0322 2.14313 54.8277 0.382747 57.2773 0.239351C58.052 0.158237 58.9853 -0.00866397 59.0819 1.07682C59.1785 2.16229 58.0188 2.475 57.1357 2.79515C52.7994 5.42563 48.2154 7.6295 43.786 10.0947C42.2636 10.9423 41.0317 12.6463 38.8273 12.5934C38.0476 12.5756 37.3779 14.1949 36.2338 14.5352C36.5762 15.1553 35.9145 15.2308 35.6892 15.2562C32.7834 15.6206 31.1099 18.6917 28.0654 18.6878C27.55 20.4197 25.5397 20.2863 24.5657 21.4818C24.3779 21.7811 24.1199 22.0299 23.8141 22.2068C23.5083 22.3837 23.1639 22.4832 22.8109 22.4968C22.4847 21.9184 22.5727 21.2697 22.2437 20.6348C22.4732 21.2605 22.4229 21.9568 22.8674 22.494Z" fill="white"/>
</svg>
